<svg id="Layer_1" data-name="Layer 1" xmlns="http://www.w3.org/2000/svg" xmlns:xlink="http://www.w3.org/1999/xlink" viewBox="0 0 7061.35 3580.13"><defs><style>.cls-1{font-size:606.12px;fill:#012e83;font-family:BookmanOldStyle-Bold, Bookman Old Style;font-weight:700;letter-spacing:-0.03em;}.cls-2{fill:url(#Degradado_sin_nombre_27);}.cls-3{fill:url(#Degradado_sin_nombre_24);}.cls-4{fill:url(#Degradado_sin_nombre_27-2);}.cls-5{fill:url(#Degradado_sin_nombre_19);}.cls-6{fill:url(#Degradado_sin_nombre_19-2);}.cls-7{font-size:249.24px;fill:#017301;font-family:Poppins-Medium, Poppins;font-weight:500;letter-spacing:0.31em;}</style><linearGradient id="Degradado_sin_nombre_27" x1="3741.04" y1="4123.33" x2="3702.66" y2="1852.54" gradientTransform="translate(-430.86 7557.52) rotate(-90.31)" gradientUnits="userSpaceOnUse"><stop offset="0" stop-color="#3e38c9"/><stop offset="0.49" stop-color="#00989f"/><stop offset="1" stop-color="#d6f1a0"/></linearGradient><linearGradient id="Degradado_sin_nombre_24" x1="3654.87" y1="3699.75" x2="3578.41" y2="1406.04" gradientTransform="translate(-430.86 7557.52) rotate(-90.31)" gradientUnits="userSpaceOnUse"><stop offset="0" stop-color="#d6f1a0"/><stop offset="0.51" stop-color="#00989f"/><stop offset="1" stop-color="#3e38c9"/></linearGradient><linearGradient id="Degradado_sin_nombre_27-2" x1="3279.27" y1="4316.83" x2="4378.29" y2="3025" gradientTransform="translate(-2244.2 3105.79) rotate(-43.09)" xlink:href="#Degradado_sin_nombre_27"/><linearGradient id="Degradado_sin_nombre_19" x1="1241.6" y1="4960.08" x2="2807.42" y2="3119.56" gradientTransform="translate(-2244.2 3105.79) rotate(-43.09)" gradientUnits="userSpaceOnUse"><stop offset="0" stop-color="#00989f"/><stop offset="1" stop-color="#d6f1a0"/></linearGradient><linearGradient id="Degradado_sin_nombre_19-2" x1="2977.38" y1="4797.35" x2="2977.78" y2="4797.35" xlink:href="#Degradado_sin_nombre_19"/></defs><text class="cls-1" transform="translate(1947.52 2233.87)"><tspan xml:space="preserve">VIKJAN GROOT  </tspan></text><path class="cls-2" d="M2628.59,3588.59a.47.47,0,0,1,.36.11c193.73,96.43,390.52,253.8,583.37,492.67l-4.86,0c-1110-785-2001.51-22-2038.22,10.12C1901.17,3344,2610.65,3582.4,2628.59,3588.59Z" transform="translate(-804.65 -2289.09)"/><path class="cls-3" d="M3207.46,4081.4c-1072.09-528.89-2038.22,10.12-2038.22,10.12C1206,4059.42,2097.43,3296.43,3207.46,4081.4Z" transform="translate(-804.65 -2289.09)"/><path class="cls-4" d="M3191.83,3949.64l-.59-3.41C3610,3092.67,2984.17,2561.81,2957.89,2540a1,1,0,0,0-.61-.48l-.09-.07-.18-.13-5.59.86c-429.19,593.68-180.57,1054.89-174.2,1066.43-.46-.49-.76-1-1.22-1.5-5.48-7.62-10.79-15.11-15.94-22.62-3.49-5.1-6.92-10.28-10.33-15.32-4-6.31-8-12.53-11.91-18.92l-6.91-11.4c-2.22-3.84-4.52-7.59-6.75-11.42s-4.48-7.83-6.64-11.76-4.32-7.84-6.39-11.7c-2-3.63-3.78-7.28-5.74-10.91-1.14-2.16-2.29-4.31-3.34-6.39-1.83-3.81-3.73-7.53-5.54-11.18-4.63-9.63-9.08-19.13-13.22-28.66-1.76-3.89-3.43-7.72-5-11.64s-3.28-7.74-4.8-11.59c-3.19-7.67-6.16-15.45-9-23.17-1.37-3.86-2.73-7.73-4.25-11.58-.63-1.9-1.29-3.95-1.93-5.85s-1.36-3.87-2-5.77c-2.93-8.73-5.69-17.33-8.28-26-1.12-3.81-2.22-7.48-3.34-11.3-1.3-4.66-2.54-9.42-3.84-14.08-2.36-9.28-4.64-18.5-6.76-27.74-1.06-4.61-2-9.16-3-13.87-.54-2.39-1.1-4.93-1.48-7.33-.15-.54-.21-1-.36-1.54-3.21-16-5.8-32.06-8-47.85-1.09-7.31-2-14.64-2.87-22-.56-5.63-1.2-11.33-1.69-17.05-.24-1.88-.42-4-.59-5.95-.56-6.9-1.12-13.8-1.52-20.71l0-.16c-.47-6.83-.78-13.68-1.1-20.53,0-.56-.05-1,0-1.58-.29-7.25-.46-14.28-.57-21.39-.09-5.7-.11-11.47,0-17.18a62.31,62.31,0,0,1,0-7.61c0-5.31.1-10.46.3-15.8,0-1.26.06-2.62.15-3.82.11-6.66.36-13.35.74-19.81a5.35,5.35,0,0,1,0-.8c.25-5.57.64-11.17,1.05-16.76.18-3.51.53-7,.81-10.48.36-5.91,1-11.77,1.56-17.63.5-6.08,1.13-12.33,1.94-18.46.65-6.1,1.37-12.29,2.18-18.41.33-2.42.72-4.92,1-7.5.7-4.52,1.3-9.11,2-13.79,3.63-23.9,8.07-47.59,13.06-70.72,1-4.32,1.94-8.48,2.89-12.8,8.27-36.61,18.19-72.08,29.2-106.43,1.29-4.2,2.67-8.33,4.12-12.56,4.55-14,9.37-27.88,14.39-41.42,1.93-5.39,3.86-10.79,5.81-16,6-16.13,12.35-31.9,18.79-47.29,2-4.93,4.09-9.63,6.1-14.4,1.43-3.67,3.05-7.2,4.66-10.73,1.87-4.59,3.85-9,5.83-13.33,3.14-7.13,6.38-14,9.56-20.85,2.53-5.63,5.24-11.12,7.79-16.59s5.2-10.88,7.84-16.28c2.66-5.25,5.24-10.57,7.83-15.73s5.19-10.32,7.87-15.41,5.29-10.09,7.84-15c.3-.75.84-1.45,1.14-2.2,7.56-14.11,14.91-27.4,22.13-40.35l.07-.09c2.52-4.51,5.05-8.88,7.52-13.15,5.31-9.38,10.67-18.3,15.92-26.89,2.1-3.43,4.11-6.93,6.14-10.28,9.52-15.54,18.63-29.84,27-42.78,1.28-1.82,2.46-3.72,3.74-5.54,2.91-4.49,5.71-8.65,8.44-12.71,1.94-2.86,3.74-5.55,5.6-8.32q8.22-12,15.08-21.63c1.55-2.18,3-4.18,4.39-6,8.2-11.5,14.26-19.31,17.31-23.42l.06-.09c5.1,3.39,15.42,10.4,30.06,20.9,2.17,1.55,4.43,3.16,6.63,4.86,18.22,13.14,41.87,31.05,69.08,53.26,6.81,5.56,13.8,11.4,21.06,17.45l11,9.38c7.3,6.36,15,13,22.72,19.85,31,27.52,64.36,59.16,98.41,94.69,4.35,4.36,8.57,8.89,12.79,13.42,8.61,9.21,17.08,18.59,25.67,28.19,4.32,4.76,8.65,9.52,12.92,14.52l.09.07c19.85,22.83,39.62,47,59,72.28,3,3.74,5.77,7.43,8.56,11.27q14.57,19.3,28.69,39.53c2.61,3.71,5.06,7.44,7.6,11.23,14.6,21.44,28.83,43.71,42.33,66.55l.09.07c7.29,12.54,14.43,25.1,21.36,37.93,6.43,12,12.82,24.27,19,36.64s11.94,24.86,17.59,37.53c1.54,3.45,3.09,6.89,4.48,10.36,33.26,76.81,57.84,159.55,68.76,247.58,1.15,8.49,2,17.17,2.81,25.94s1.57,17.38,2.06,26.19c.24,4.41.39,8.75.63,13.15q.63,13.35.78,26.75c.09,4.42.1,8.94,0,13.38,0,4-.1,7.93-.06,12.05l-1.57,36.31c-.2,4.07-.55,8.15-.9,12.24s-.62,8.23-1.07,12.25c-.26,4.15-.7,8.17-1.21,12.27-1.29,12.36-3,24.85-4.86,37.29s-4.18,25.16-6.78,37.76c-1,4.88-1.88,9.51-2.93,14.31-.89,3.68-1.68,7.42-2.63,11.19-1,4.16-1.93,8.48-3,12.82-1.13,4.18-2.09,8.5-3.29,12.77-2.24,8.52-4.63,17.22-7.18,25.78-1.29,4.2-2.49,8.47-3.94,12.7,0,.15,0,.15,0,.24C3422.14,3636.51,3335.3,3789.92,3191.83,3949.64Z" transform="translate(-804.65 -2289.09)"/><path class="cls-5" d="M1168.12,4092.65l0,8.19c689.12,689.29,1349.7,523.87,1452.5,492.45l2.64-1.79a10.87,10.87,0,0,1,1.66-.88l-2,1.92c6.27-2,10-3.29,11.24-3.72-.84.56-1.67.89-2.39,1.33-4.64,2.3-9.27,4.6-13.79,6.79-54.3,50.11-387.45,391.84-212,1051.82l4.82,2.74h.23l.12-.11a1.25,1.25,0,0,0,.71-.21c30-10,714.76-64,743-853.94,151,1030.14-857.87,1068.23-874.95,1072h-.24c-1.23-4.95-4.19-14.4-7.71-28.09-.75-2.25-1.37-4.61-2-7.2-2-7.67-4-16.16-6.28-25.59-.72-3.18-1.43-6.36-2.25-9.66-1.13-4.84-2.25-9.67-3.36-15-.51-2.24-.91-4.36-1.54-6.48-3.12-15.19-6.54-31.68-9.8-49.68-.81-3.77-1.38-7.77-2.18-11.77-1.78-9.89-3.66-20.12-5.18-30.7-.77-4.94-1.54-9.88-2.3-15l-.12-.12c-2-14.68-4.15-29.61-6.19-45.58a21.35,21.35,0,0,0-.27-2.47c-.64-5.52-1.27-11-1.9-16.79s-1.14-11.38-1.88-17.25-1.13-11.62-1.64-17.48-1-12-1.5-18.06-1-12-1.38-18.18c-.45-7.5-1-15.12-1.46-22.85-.3-4.92-.49-9.72-.56-14.64-.22-3.87-.68-7.74-.54-11.71-.3-5.16-.49-10.19-.54-15.58q-.92-24.93-.75-50.89c.18-5.61.26-11.34.33-17.07.13-14.38.62-29.1,1.35-43.81.15-4.44.41-8.76.79-13.19,1.9-36,5.35-72.68,10.68-109.81.73-4.31,1.23-8.62,1.95-12.92,3.6-23.51,7.9-47.22,13-70.79,1.09-4.64,2.29-9.17,3.14-13.58.67-2.43,1.22-5,1.77-7.31,1.49-6.15,3-12.06,4.58-18.09s3.09-11.94,4.8-17.85c1.48-5.68,3.08-11.48,4.9-17,.93-3.36,1.86-6.72,2.91-10.2,1.58-5.32,3.28-10.53,5-16,.12-.11.13-.35.26-.69,2-6.14,4.16-12.5,6.47-18.73a33.54,33.54,0,0,1,1.17-3.59c1.7-5.21,3.5-10.06,5.42-15,.77-2.32,1.68-4.74,2.69-7.05,2-5.31,4-10.74,6.26-16.05,2.68-6.57,5.23-13,8-19.73a5.93,5.93,0,0,0,.64-1.49c2.78-6.23,5.56-12.45,8.46-18.79l.12-.11c2.78-6.22,5.68-12.56,8.7-18.77.87-1.73,1.76-3.69,2.75-5.29,2.51-5.3,5.13-10.24,7.76-15.41,3.38-6.56,6.75-13.11,10.48-19.54,7.72-14,15.9-28,24.67-41.86a4.92,4.92,0,0,0,.86-1.26c1.24-2.06,2.6-4.24,4.07-6.29,2.59-4,5.06-7.9,7.65-11.91,5.29-7.89,10.7-15.67,16.33-23.43,2.94-3.88,5.77-7.88,8.59-11.88,2.44-3.19,4.76-6,7.21-9.23,5.5-7.19,11.12-14.25,17-21.3,1.22-1.6,2.68-3.19,4-4.66s2.57-3.31,3.9-4.79c2.79-3.06,5.35-6.13,8-9.32q8.2-9.37,16.76-18.39c2.79-3.06,5.58-6.13,8.61-9.18s5.93-6,8.83-8.95c7.27-7.47,14.88-14.82,22.61-22.05,3-2.82,6.15-5.52,9.17-8.58,1.81-1.46,3.62-3.15,5.42-4.61,3.13-2.71,6.15-5.53,9.28-8.23s6.63-5.75,10.11-8.55c3.49-3,7-5.85,10.47-8.66s6.84-5.5,10.33-8.31l10.56-8.07c5.89-4.6,12-8.95,17.88-13.55,5-3.34,10-6.92,15.09-10.49,2.51-1.67,4.91-3.46,7.65-5.13-3.92,1.86-8,3.83-11.88,5.69-7.84,3.71-15.92,7.42-23.88,11-9.73,4.36-19.46,8.48-29.19,12.6l-17.9,7.23c-5.81,2.27-11.61,4.53-17.54,6.9l-18.12,6.77c-6,2-12.07,4.27-18,6.41-5.56,1.81-11.11,3.61-16.68,5.65-3.31,1.05-6.62,2.11-9.81,3.06-5.79,1.8-11.35,3.6-17.14,5.39-14.53,4.31-29,8.39-43.44,12.12-5.78,1.56-11.68,3-17.46,4.56s-11.67,2.77-17.45,4.1c-11.55,2.65-23.21,5.19-34.87,7.49q-8.46,1.47-17.3,3.28c-2.82.37-5.76.86-8.59,1.47-2.81.37-5.87,1-8.58,1.46-12.94,2.15-25.75,3.94-38.55,5.73-5.64.75-11.28,1.5-16.8,2.13-6.81.95-13.86,1.65-20.78,2.23-13.61,1.42-27.09,2.49-40.57,3.33-6.8.47-13.48.83-20.27,1.07-3.52.36-7.27.46-10.66.47a16.35,16.35,0,0,1-2.34.15c-23.19.87-46.59,1-69.49.49-10.52-.12-21-.47-31.66-.94-8.17-.51-16.23-.89-24.4-1.4-2.8-.09-5.72-.31-8.52-.63-9.91-.69-19.71-1.48-29.5-2.51h-.24q-14.87-1.36-29.36-3.08a12.73,12.73,0,0,1-2.21-.43c-10.26-1-20.39-2.43-30.4-3.94-8.14-1.21-16.17-2.52-24.19-3.85a107.7,107.7,0,0,1-10.71-1.76c-7.44-1.18-14.88-2.36-22.2-3.9-2-.41-3.72-.82-5.58-1.12-9.3-1.71-18.48-3.54-27.65-5.6a3.3,3.3,0,0,1-1.16-.27c-7.78-1.55-15.56-3.33-23.45-5.23-4.87-1.1-9.75-2.2-14.62-3.53-8.12-1.91-16.36-3.93-24.58-6.2-8.47-2-17-4.42-25.62-6.82-8.34-2.38-16.92-4.77-25.37-7.28-3.35-1.16-6.83-2.21-10.3-3.26l-19.1-5.91c-33-10.57-65.34-22.18-96.86-34.57q-8.83-3.28-17.31-6.89c-50-20-97.77-42.1-143.77-65.39-5.64-2.88-11.16-5.64-16.79-8.51q-28.29-14.62-55.26-29.8c-7.12-4-14.24-8-21.24-12-21.47-12.06-42.22-24.57-62.5-37.06-6.42-4-12.72-8-19.13-12-4.58-3-9.28-5.81-14-8.89-5.83-3.82-11.79-7.53-17.39-11.34-9.39-6.16-18.43-12.19-27.23-18.22-7.55-4.93-14.64-9.84-21.84-14.88-7-4.79-14.06-9.71-21-14.74s-13.83-9.7-20.45-14.59c-6.85-4.91-13.36-9.69-20-14.59s-13.12-9.68-19.51-14.57c-.92-.5-1.82-1.46-2.85-2.08q-27-20.55-51.87-40.45l-.12.12c-5.69-4.64-11.38-9.27-17-13.78-11.85-9.52-23.34-19.15-34.26-28.4-4.43-3.77-8.87-7.55-13.08-11.08-19.78-17-38-33.08-54.3-47.89-2.27-2.18-4.66-4.25-6.92-6.43-5.68-5.1-11-10.08-16.11-14.81-3.51-3.51-6.92-6.66-10.43-9.93-10-9.46-19-18.18-27.09-26.06-2.71-2.66-5.2-5.08-7.46-7.49-14.26-14.28-24.1-24.55-29.3-29.87l.12-.11c5.83-6.36,18.08-19.4,36.23-37.74,2.67-2.72,5.45-5.55,8.23-8.15,22.75-22.86,53.55-52.12,91-85.37,9.29-8.46,19.16-17,29.4-25.92l15.65-13.28c10.59-9,21.78-18.33,33.2-27.66,45.93-37.53,98.14-77.54,156.08-117.47q10.79-7.71,21.91-15.06c14.83-10,30-19.93,45.43-29.83,7.77-5,15.54-10,23.43-14.89l.12-.11c36.89-22.74,75.54-45.31,115.56-66.9,6-3.31,11.79-6.51,17.86-9.46,20.24-10.79,41.17-21.32,62.34-31.6,5.82-2.73,11.64-5.46,17.57-8.07,33.52-16,68.16-30.71,103.48-44.73l.12-.11c19.31-7.43,38.85-14.61,58.38-21.56,18.46-6.4,37.26-12.68,56-18.48s37.8-11.14,57-16.23c5.2-1.46,10.5-2.8,15.69-4,116-29.7,238.35-45.49,365.1-40.91,12.38.41,24.75,1.06,37.24,1.83,12.48,1,25,2,37.44,3.24,6.29.67,12.47,1.23,18.76,1.91,12.58,1.59,25.27,3.3,37.84,5.12,6.29.91,12.68,1.95,19.08,3,5.59.89,11.05,1.89,16.87,2.78,17,3.14,33.81,6.63,50.88,10.36,5.8,1.36,11.37,2.71,17.05,4.19s11.37,2.72,17.17,4.32c5.68,1.24,11.48,2.84,17,4.43,17.15,4.78,34.29,9.79,51.53,15.4s34.58,11.56,51.79,18.1c6.59,2.44,12.94,4.88,19.52,7.32,5,2.15,10,4.2,15.11,6.24,5.77,2.29,11.54,4.82,17.42,7.24s11.41,4.94,17.29,7.6c11.53,5.06,23.16,10.48,34.79,15.9,5.64,2.87,11.39,5.64,17,8.52-17.81-6.21-727.36-244.51-1459.19,502.95a4.57,4.57,0,0,0-1.08.78l.12.12Z" transform="translate(-804.65 -2289.09)"/><path class="cls-6" d="M3207.44,4574.93c0,.29.13.43.12.72" transform="translate(-804.65 -2289.09)"/><text class="cls-7" transform="translate(1808.26 2492.55)"><tspan xml:space="preserve"> AGRICULTURAL PRODUCTS </tspan></text></svg>