<?xml version="1.0" encoding="utf-8"?>
<!-- Generator: Adobe Illustrator 26.0.1, SVG Export Plug-In . SVG Version: 6.00 Build 0)  -->
<svg version="1.1" id="Layer_1" xmlns="http://www.w3.org/2000/svg" xmlns:xlink="http://www.w3.org/1999/xlink" x="0px" y="0px"
	 viewBox="0 0 3456 2592" style="enable-background:new 0 0 3456 2592;" xml:space="preserve">
<style type="text/css">
	.st0{fill:url(#SVGID_1_);}
	.st1{fill:url(#SVGID_00000061435512338274479210000011391765672658296248_);}
	.st2{fill:url(#SVGID_00000076599001990604113600000006361879683132392588_);}
	.st3{fill:url(#SVGID_00000137819007071264521110000005327257309957641107_);}
	.st4{fill:url(#SVGID_00000080924455597248271810000014394542769634002312_);}
</style>
<g>
	
		<linearGradient id="SVGID_1_" gradientUnits="userSpaceOnUse" x1="895.2105" y1="2131.0598" x2="879.5554" y2="1204.8064" gradientTransform="matrix(-5.456388e-03 -1 1 -5.456388e-03 -12.9118 2011.3781)">
		<stop  offset="0" style="stop-color:#3E38C9"/>
		<stop  offset="0.4916" style="stop-color:#00989F"/>
		<stop  offset="1" style="stop-color:#D6F1A0"/>
	</linearGradient>
	<path class="st0" d="M1687.6,1020.7c0,0,0.1,0,0.1,0c79,39.3,159.3,103.5,238,201l-2,0c-452.8-320.2-816.4-9-831.4,4.1
		C1390.9,921,1680.3,1018.2,1687.6,1020.7z"/>
	
		<linearGradient id="SVGID_00000110431082072905973450000014908195083216202139_" gradientUnits="userSpaceOnUse" x1="860.0594" y1="1958.2844" x2="828.8718" y2="1022.6805" gradientTransform="matrix(-5.456388e-03 -1 1 -5.456388e-03 -12.9118 2011.3781)">
		<stop  offset="0" style="stop-color:#D6F1A0"/>
		<stop  offset="0.5084" style="stop-color:#00989F"/>
		<stop  offset="1" style="stop-color:#3E38C9"/>
	</linearGradient>
	<path style="fill:url(#SVGID_00000110431082072905973450000014908195083216202139_);" d="M1923.7,1221.7
		c-437.3-215.7-831.4,4.1-831.4,4.1C1107.3,1212.8,1471,901.6,1923.7,1221.7z"/>
	
		<linearGradient id="SVGID_00000183970793406101934690000003383120359633865388_" gradientUnits="userSpaceOnUse" x1="1592.5316" y1="2359.7146" x2="2040.8234" y2="1832.776" gradientTransform="matrix(0.7303 -0.6831 0.6831 0.7303 -895.2744 560.5714)">
		<stop  offset="0" style="stop-color:#3E38C9"/>
		<stop  offset="0.4916" style="stop-color:#00989F"/>
		<stop  offset="1" style="stop-color:#D6F1A0"/>
	</linearGradient>
	<path style="fill:url(#SVGID_00000183970793406101934690000003383120359633865388_);" d="M1917.4,1168l-0.2-1.4
		c170.8-348.2-84.5-564.7-95.2-573.6c0-0.1-0.2-0.2-0.3-0.2c0,0,0,0,0,0c0,0-0.1-0.1-0.1-0.1l-2.3,0.4
		c-175.1,242.2-73.7,430.3-71.1,435c-0.2-0.2-0.3-0.4-0.5-0.6c-2.2-3.1-4.4-6.2-6.5-9.2c-1.4-2.1-2.8-4.2-4.2-6.2
		c-1.6-2.6-3.3-5.1-4.9-7.7l-2.8-4.7c-0.9-1.6-1.8-3.1-2.8-4.7c-0.9-1.6-1.8-3.2-2.7-4.8c-0.9-1.6-1.8-3.2-2.6-4.8
		c-0.8-1.5-1.5-3-2.3-4.5c-0.5-0.9-0.9-1.8-1.4-2.6c-0.7-1.6-1.5-3.1-2.3-4.6c-1.9-3.9-3.7-7.8-5.4-11.7c-0.7-1.6-1.4-3.2-2.1-4.7
		c-0.7-1.6-1.3-3.2-2-4.7c-1.3-3.1-2.5-6.3-3.7-9.5c-0.6-1.6-1.1-3.2-1.7-4.7c-0.3-0.8-0.5-1.6-0.8-2.4c-0.3-0.8-0.6-1.6-0.8-2.4
		c-1.2-3.6-2.3-7.1-3.4-10.6c-0.5-1.6-0.9-3.1-1.4-4.6c-0.5-1.9-1-3.8-1.6-5.7c-1-3.8-1.9-7.5-2.8-11.3c-0.4-1.9-0.8-3.7-1.2-5.7
		c-0.2-1-0.4-2-0.6-3c-0.1-0.2-0.1-0.4-0.1-0.6c-1.3-6.5-2.4-13.1-3.3-19.5c-0.4-3-0.8-6-1.2-9c-0.2-2.3-0.5-4.6-0.7-7
		c-0.1-0.8-0.2-1.6-0.2-2.4c-0.2-2.8-0.5-5.6-0.6-8.4l0-0.1c-0.2-2.8-0.3-5.6-0.4-8.4c0-0.2,0-0.4,0-0.6c-0.1-3-0.2-5.8-0.2-8.7
		c0-2.3,0-4.7,0-7c-0.1-1-0.1-2.1,0-3.1c0-2.2,0-4.3,0.1-6.4c0-0.5,0-1.1,0.1-1.6c0-2.7,0.1-5.4,0.3-8.1c0-0.1,0-0.3,0-0.3
		c0.1-2.3,0.3-4.6,0.4-6.8c0.1-1.4,0.2-2.9,0.3-4.3c0.1-2.4,0.4-4.8,0.6-7.2c0.2-2.5,0.5-5,0.8-7.5c0.3-2.5,0.6-5,0.9-7.5
		c0.1-1,0.3-2,0.4-3.1c0.3-1.8,0.5-3.7,0.8-5.6c1.5-9.7,3.3-19.4,5.3-28.8c0.4-1.8,0.8-3.5,1.2-5.2c3.4-14.9,7.4-29.4,11.9-43.4
		c0.5-1.7,1.1-3.4,1.7-5.1c1.9-5.7,3.8-11.4,5.9-16.9c0.8-2.2,1.6-4.4,2.4-6.5c2.5-6.6,5-13,7.7-19.3c0.8-2,1.7-3.9,2.5-5.9
		c0.6-1.5,1.2-2.9,1.9-4.4c0.8-1.9,1.6-3.7,2.4-5.4c1.3-2.9,2.6-5.7,3.9-8.5c1-2.3,2.1-4.5,3.2-6.8c1-2.2,2.1-4.4,3.2-6.6
		c1.1-2.1,2.1-4.3,3.2-6.4c1.1-2.1,2.1-4.2,3.2-6.3c1.1-2.1,2.2-4.1,3.2-6.1c0.1-0.3,0.3-0.6,0.5-0.9c3.1-5.8,6.1-11.2,9-16.5
		c0,0,0,0,0,0c1-1.8,2.1-3.6,3.1-5.4c2.2-3.8,4.4-7.5,6.5-11c0.9-1.4,1.7-2.8,2.5-4.2c3.9-6.3,7.6-12.2,11-17.5
		c0.5-0.7,1-1.5,1.5-2.3c1.2-1.8,2.3-3.5,3.4-5.2c0.8-1.2,1.5-2.3,2.3-3.4c2.2-3.3,4.3-6.2,6.2-8.8c0.6-0.9,1.2-1.7,1.8-2.5
		c3.3-4.7,5.8-7.9,7.1-9.6l0,0c2.1,1.4,6.3,4.2,12.3,8.5c0.9,0.6,1.8,1.3,2.7,2c7.4,5.4,17.1,12.7,28.2,21.7
		c2.8,2.3,5.6,4.6,8.6,7.1c1.5,1.3,3,2.5,4.5,3.8c3,2.6,6.1,5.3,9.3,8.1c12.6,11.2,26.3,24.1,40.1,38.6c1.8,1.8,3.5,3.6,5.2,5.5
		c3.5,3.8,7,7.6,10.5,11.5c1.8,1.9,3.5,3.9,5.3,5.9l0,0c8.1,9.3,16.2,19.2,24.1,29.5c1.2,1.5,2.4,3,3.5,4.6
		c4,5.2,7.9,10.6,11.7,16.1c1.1,1.5,2.1,3,3.1,4.6c6,8.7,11.8,17.8,17.3,27.1l0,0c3,5.1,5.9,10.2,8.7,15.5c2.6,4.9,5.2,9.9,7.7,14.9
		c2.5,5,4.9,10.1,7.2,15.3c0.6,1.4,1.3,2.8,1.8,4.2c13.6,31.3,23.6,65.1,28,101c0.5,3.5,0.8,7,1.1,10.6c0.4,3.5,0.6,7.1,0.8,10.7
		c0.1,1.8,0.2,3.6,0.3,5.4c0.2,3.6,0.3,7.3,0.3,10.9c0,1.8,0,3.6,0,5.5c0,1.6,0,3.2,0,4.9l-0.6,14.8c-0.1,1.7-0.2,3.3-0.4,5
		c-0.1,1.7-0.3,3.4-0.4,5c-0.1,1.7-0.3,3.3-0.5,5c-0.5,5-1.2,10.1-2,15.2c-0.8,5.1-1.7,10.3-2.8,15.4c-0.4,2-0.8,3.9-1.2,5.8
		c-0.4,1.5-0.7,3-1.1,4.6c-0.4,1.7-0.8,3.5-1.2,5.2c-0.5,1.7-0.9,3.5-1.3,5.2c-0.9,3.5-1.9,7-2.9,10.5c-0.5,1.7-1,3.5-1.6,5.2
		c0,0.1,0,0.1,0,0.1C2011.3,1040.3,1975.9,1102.9,1917.4,1168z"/>
	
		<linearGradient id="SVGID_00000105408961470283304870000013350537088973066943_" gradientUnits="userSpaceOnUse" x1="761.3708" y1="2622.0947" x2="1400.0679" y2="1871.3469" gradientTransform="matrix(0.7303 -0.6831 0.6831 0.7303 -895.2744 560.5714)">
		<stop  offset="0" style="stop-color:#00989F"/>
		<stop  offset="1" style="stop-color:#D6F1A0"/>
	</linearGradient>
	<path style="fill:url(#SVGID_00000105408961470283304870000013350537088973066943_);" d="M1091.9,1226.3l0,3.3
		c281.1,281.2,550.5,213.7,592.5,200.9c0.3-0.2,0.7-0.5,1.1-0.7c0.2-0.1,0.4-0.3,0.7-0.4l-0.8,0.8c2.6-0.8,4.1-1.3,4.6-1.5
		c-0.3,0.2-0.7,0.4-1,0.5c-1.9,0.9-3.8,1.9-5.6,2.8c-22.1,20.4-158,159.8-86.5,429l2,1.1l0.1,0c0,0,0,0,0,0c0.1,0,0.2,0,0.3-0.1
		c12.3-4.1,291.5-26.1,303.1-348.3c61.6,420.2-349.9,435.7-356.9,437.3c-0.1,0-0.1,0-0.1,0c-0.5-2-1.7-5.9-3.1-11.5
		c-0.3-0.9-0.6-1.9-0.8-2.9c-0.8-3.1-1.6-6.6-2.6-10.4c-0.3-1.3-0.6-2.6-0.9-3.9c-0.5-2-0.9-3.9-1.4-6.1c-0.2-0.9-0.4-1.8-0.6-2.6
		c-1.3-6.2-2.7-12.9-4-20.3c-0.3-1.5-0.6-3.2-0.9-4.8c-0.7-4-1.5-8.2-2.1-12.5c-0.3-2-0.6-4-0.9-6.1c0,0,0,0,0,0
		c-0.8-6-1.7-12.1-2.5-18.6c0-0.3-0.1-0.7-0.1-1c-0.3-2.3-0.5-4.5-0.8-6.8c-0.3-2.3-0.5-4.6-0.8-7c-0.3-2.3-0.5-4.7-0.7-7.1
		c-0.3-2.4-0.4-4.9-0.6-7.4c-0.2-2.4-0.4-4.9-0.6-7.4c-0.2-3.1-0.4-6.2-0.6-9.3c-0.1-2-0.2-4-0.2-6c-0.1-1.6-0.3-3.2-0.2-4.8
		c-0.1-2.1-0.2-4.2-0.2-6.4c-0.3-6.8-0.4-13.7-0.3-20.8c0.1-2.3,0.1-4.6,0.1-7c0.1-5.9,0.3-11.9,0.5-17.9c0.1-1.8,0.2-3.6,0.3-5.4
		c0.8-14.7,2.2-29.6,4.4-44.8c0.3-1.8,0.5-3.5,0.8-5.3c1.5-9.6,3.2-19.3,5.3-28.9c0.4-1.9,0.9-3.7,1.3-5.5c0.3-1,0.5-2,0.7-3
		c0.6-2.5,1.2-4.9,1.9-7.4c0.6-2.4,1.3-4.9,2-7.3c0.6-2.3,1.3-4.7,2-6.9c0.4-1.4,0.8-2.7,1.2-4.2c0.6-2.2,1.3-4.3,2-6.5
		c0,0,0.1-0.1,0.1-0.3c0.8-2.5,1.7-5.1,2.6-7.6c0.1-0.5,0.3-1,0.5-1.5c0.7-2.1,1.4-4.1,2.2-6.1c0.3-0.9,0.7-1.9,1.1-2.9
		c0.8-2.2,1.6-4.4,2.6-6.5c1.1-2.7,2.1-5.3,3.3-8c0.1-0.2,0.2-0.4,0.3-0.6c1.1-2.5,2.3-5.1,3.5-7.7l0,0c1.1-2.5,2.3-5.1,3.5-7.7
		c0.4-0.7,0.7-1.5,1.1-2.2c1-2.2,2.1-4.2,3.2-6.3c1.4-2.7,2.8-5.3,4.3-8c3.1-5.7,6.5-11.4,10.1-17.1c0.1-0.1,0.2-0.3,0.4-0.5
		c0.5-0.8,1.1-1.7,1.7-2.6c1.1-1.6,2.1-3.2,3.1-4.9c2.2-3.2,4.4-6.4,6.7-9.6c1.2-1.6,2.3-3.2,3.5-4.8c1-1.3,1.9-2.5,2.9-3.8
		c2.2-2.9,4.5-5.8,6.9-8.7c0.5-0.7,1.1-1.3,1.6-1.9c0.5-0.7,1-1.3,1.6-2c1.1-1.3,2.2-2.5,3.3-3.8c2.2-2.5,4.5-5,6.8-7.5
		c1.1-1.2,2.3-2.5,3.5-3.7c1.2-1.2,2.4-2.4,3.6-3.6c3-3,6.1-6,9.2-9c1.2-1.2,2.5-2.3,3.7-3.5c0.7-0.6,1.5-1.3,2.2-1.9
		c1.3-1.1,2.5-2.3,3.8-3.4c1.3-1.1,2.7-2.3,4.1-3.5c1.4-1.2,2.8-2.4,4.3-3.5c1.4-1.1,2.8-2.2,4.2-3.4l4.3-3.3
		c2.4-1.9,4.9-3.7,7.3-5.5c2-1.4,4.1-2.8,6.2-4.3c1-0.7,2-1.4,3.1-2.1c-1.6,0.8-3.2,1.6-4.8,2.3c-3.2,1.5-6.5,3-9.7,4.5
		c-4,1.8-7.9,3.5-11.9,5.1l-7.3,3c-2.4,0.9-4.7,1.8-7.2,2.8c-2.5,0.9-4.9,1.8-7.4,2.8c-2.5,0.8-4.9,1.7-7.3,2.6
		c-2.3,0.7-4.5,1.5-6.8,2.3c-1.4,0.4-2.7,0.9-4,1.2c-2.4,0.7-4.6,1.5-7,2.2c-5.9,1.8-11.8,3.4-17.7,4.9c-2.4,0.6-4.8,1.2-7.1,1.9
		c-2.4,0.6-4.8,1.1-7.1,1.7c-4.7,1.1-9.5,2.1-14.2,3.1c-2.3,0.4-4.7,0.8-7.1,1.3c-1.1,0.2-2.3,0.4-3.5,0.6c-1.1,0.2-2.4,0.4-3.5,0.6
		c-5.3,0.9-10.5,1.6-15.7,2.3c-2.3,0.3-4.6,0.6-6.9,0.9c-2.8,0.4-5.7,0.7-8.5,0.9c-5.6,0.6-11.1,1-16.6,1.4
		c-2.8,0.2-5.5,0.3-8.3,0.4c-1.4,0.1-3,0.2-4.3,0.2c-0.3,0-0.7,0.1-1,0.1c-9.5,0.4-19,0.4-28.3,0.2c-4.3,0-8.6-0.2-12.9-0.4
		c-3.3-0.2-6.6-0.4-10-0.6c-1.1,0-2.3-0.1-3.5-0.3c-4-0.3-8-0.6-12-1c-0.1,0-0.1,0-0.1,0c-4-0.4-8-0.8-12-1.3
		c-0.3-0.1-0.6-0.1-0.9-0.2c-4.2-0.4-8.3-1-12.4-1.6c-3.3-0.5-6.6-1-9.9-1.6c-1.5-0.2-2.9-0.4-4.4-0.7c-3-0.5-6.1-1-9.1-1.6
		c-0.8-0.2-1.5-0.3-2.3-0.5c-3.8-0.7-7.5-1.4-11.3-2.3c-0.2,0-0.3-0.1-0.5-0.1c-3.2-0.6-6.3-1.4-9.6-2.1c-2-0.4-4-0.9-6-1.4
		c-3.3-0.8-6.7-1.6-10-2.5c-3.5-0.8-7-1.8-10.4-2.8c-3.4-1-6.9-1.9-10.3-3c-1.4-0.5-2.8-0.9-4.2-1.3c-2.6-0.8-5.2-1.6-7.8-2.4
		c-13.5-4.3-26.7-9-39.5-14.1c-2.4-0.9-4.8-1.8-7.1-2.8c-20.4-8.2-39.9-17.2-58.6-26.7c-2.3-1.2-4.6-2.3-6.8-3.5
		c-7.7-4-15.2-8-22.5-12.2c-2.9-1.6-5.8-3.2-8.7-4.9c-8.8-4.9-17.2-10-25.5-15.1c-2.6-1.6-5.2-3.3-7.8-4.9c-1.9-1.2-3.8-2.4-5.7-3.6
		c-2.4-1.6-4.8-3.1-7.1-4.6c-3.8-2.5-7.5-5-11.1-7.4c-3.1-2-6-4-8.9-6.1c-2.8-2-5.7-4-8.6-6c-2.8-2-5.6-4-8.3-6
		c-2.8-2-5.4-4-8.1-5.9c-2.7-2-5.4-3.9-8-5.9c-0.4-0.2-0.7-0.6-1.2-0.8c-7.4-5.6-14.4-11.1-21.2-16.5c0,0,0,0,0,0
		c-2.3-1.9-4.6-3.8-6.9-5.6c-4.8-3.9-9.5-7.8-14-11.6c-1.8-1.5-3.6-3.1-5.3-4.5c-8.1-6.9-15.5-13.5-22.2-19.5
		c-0.9-0.9-1.9-1.7-2.8-2.6c-2.3-2.1-4.5-4.1-6.6-6c-1.4-1.4-2.8-2.7-4.3-4.1c-4.1-3.9-7.8-7.4-11-10.6c-1.1-1.1-2.1-2.1-3-3.1
		c-5.8-5.8-9.8-10-11.9-12.2l0,0c2.4-2.6,7.4-7.9,14.8-15.4c1.1-1.1,2.2-2.3,3.4-3.3c9.3-9.3,21.8-21.3,37.1-34.8
		c3.8-3.5,7.8-6.9,12-10.6c2.1-1.8,4.2-3.6,6.4-5.4c4.3-3.7,8.9-7.5,13.5-11.3c18.7-15.3,40-31.6,63.7-47.9c2.9-2.1,5.9-4.1,8.9-6.1
		c6.1-4.1,12.2-8.1,18.5-12.2c3.2-2,6.3-4.1,9.6-6.1l0,0c15.1-9.3,30.8-18.5,47.1-27.3c2.4-1.4,4.8-2.7,7.3-3.9
		c8.3-4.4,16.8-8.7,25.4-12.9c2.4-1.1,4.7-2.2,7.2-3.3c13.7-6.5,27.8-12.5,42.2-18.2l0,0c7.9-3,15.8-6,23.8-8.8
		c7.5-2.6,15.2-5.2,22.9-7.5c7.7-2.4,15.4-4.5,23.3-6.6c2.1-0.6,4.3-1.1,6.4-1.6c47.3-12.1,97.2-18.6,148.9-16.7
		c5.1,0.2,10.1,0.4,15.2,0.7c5.1,0.4,10.2,0.8,15.3,1.3c2.6,0.3,5.1,0.5,7.7,0.8c5.1,0.6,10.3,1.3,15.4,2.1c2.6,0.4,5.2,0.8,7.8,1.2
		c2.3,0.4,4.5,0.8,6.9,1.1c6.9,1.3,13.8,2.7,20.8,4.2c2.4,0.6,4.6,1.1,7,1.7c2.4,0.6,4.6,1.1,7,1.8c2.3,0.5,4.7,1.2,7,1.8
		c7,2,14,4,21,6.3c7,2.3,14.1,4.7,21.1,7.4c2.7,1,5.3,2,8,3c2,0.9,4.1,1.7,6.2,2.5c2.4,0.9,4.7,2,7.1,3c2.4,1,4.7,2,7.1,3.1
		c4.7,2.1,9.4,4.3,14.2,6.5c2.3,1.2,4.6,2.3,6.9,3.5c-7.3-2.5-296.7-99.7-595.2,205.2c-0.2,0.1-0.3,0.2-0.4,0.3
		C1092,1226.2,1092,1226.2,1091.9,1226.3C1091.9,1226.3,1091.9,1226.3,1091.9,1226.3z"/>
	
		<linearGradient id="SVGID_00000145051502688590581110000016559106764881594526_" gradientUnits="userSpaceOnUse" x1="1469.3932" y1="2555.7161" x2="1469.5571" y2="2555.7161" gradientTransform="matrix(0.7303 -0.6831 0.6831 0.7303 -895.2744 560.5714)">
		<stop  offset="0" style="stop-color:#00989F"/>
		<stop  offset="1" style="stop-color:#D6F1A0"/>
	</linearGradient>
	<path style="fill:url(#SVGID_00000145051502688590581110000016559106764881594526_);" d="M1923.7,1423.1c0,0.1,0.1,0.2,0,0.3"/>
</g>
</svg>
